<svg width="45" height="39" viewBox="0 0 45 39" fill="none" xmlns="http://www.w3.org/2000/svg">
<path d="M27.967 0.878913C20.242 0.874913 12.182 2.61491 4.04696 4.87191C3.01396 5.07991 2.00596 5.75591 1.47296 6.59191C0.982961 7.37991 0.804961 8.17091 0.651961 8.99991C-0.138039 13.4279 -0.0420386 17.7759 0.121961 22.5939C0.157961 23.6969 0.321961 25.0039 0.836961 25.7989C1.37496 26.6019 2.29696 27.1119 3.39796 27.2789C4.80457 27.4852 6.21558 27.6603 7.62996 27.8039L7.31796 36.5019C7.26996 37.1939 7.60796 37.7689 8.02796 38.0999C8.40396 38.3859 8.82296 38.5129 9.25296 38.5449C10.113 38.6099 11.122 38.2419 11.623 37.2879C13.818 33.0639 15.195 31.1989 17.94 28.3929C25.098 28.5689 31.347 28.1709 38.422 27.6479C40.923 27.5829 42.64 25.5379 43.094 23.9049C44.451 19.6729 44.662 14.4489 44.806 9.16791C44.867 7.07491 44.141 5.01991 42.856 3.93391C41.634 2.94291 40.154 2.58391 38.798 2.21591C35.031 1.36291 31.263 0.904913 27.967 0.878913ZM38.257 4.18891C39.615 4.55791 40.812 4.91291 41.567 5.52591C42.827 6.86491 42.785 7.75591 42.767 9.20091C42.625 14.3229 42.379 19.2939 41.223 23.0609C40.725 24.4659 39.857 25.4659 38.217 25.6169C31.009 26.1499 24.755 26.5619 17.51 26.3559C17.3689 26.3514 17.2284 26.3759 17.0972 26.4278C16.9659 26.4798 16.8467 26.5581 16.747 26.6579C13.703 29.7319 12.146 31.8679 9.82596 36.3339C9.77196 36.4359 9.65496 36.4979 9.51096 36.5089C9.41396 36.5039 9.37496 36.4289 9.36896 36.3609L9.68296 26.9289C9.70196 26.4199 9.28196 25.9339 8.77596 25.8789C7.08408 25.7173 5.39681 25.5106 3.71596 25.2589C2.98996 25.1479 2.72196 24.9489 2.52296 24.6529C2.17696 23.8279 2.18496 23.3179 2.15796 22.5249C1.99596 17.7499 1.91596 13.5769 2.64896 9.42491C2.71696 8.81091 2.94696 8.18291 3.19096 7.65791C3.59496 7.02591 4.21396 6.93291 4.83496 6.76091C12.791 4.56391 20.575 2.92091 27.903 2.91591C31.495 3.04591 35.267 3.40591 38.257 4.18891ZM10.778 12.2789C9.68196 13.5919 9.79096 15.3749 10.638 16.5689C11.08 17.1939 11.77 17.6969 12.61 17.8109C13.701 17.9009 14.393 17.4589 15.14 16.9509C16.493 15.7749 16.63 13.7229 15.601 12.2409C15.077 11.4859 14.239 11.0329 13.383 11.0009C12.211 11.0129 11.415 11.5359 10.778 12.2779V12.2789ZM22.634 11.2069C21.542 11.2419 20.659 11.9979 20.12 12.8139C19.503 13.7469 19.143 14.9149 19.642 16.0599C20.602 18.2629 23.919 18.2359 25.242 15.9969C25.852 14.9649 25.696 13.7919 25.242 12.9409C24.79 12.0909 24.106 11.3979 23.111 11.2389C22.9534 11.213 22.7936 11.2023 22.634 11.2069ZM32.259 11.4139C31.919 11.4059 31.569 11.4379 31.241 11.5249C29.929 11.8749 28.812 13.2289 28.981 14.9619C29.067 15.8339 29.468 16.6839 30.191 17.2699C30.914 17.8549 31.964 18.1169 33.071 17.8899C34.343 17.6299 35.131 16.6049 35.394 15.6149C35.657 14.6249 35.591 13.6159 34.98 12.7979C34.6621 12.3752 34.2517 12.0307 33.7803 11.7908C33.3089 11.551 32.7878 11.422 32.259 11.4139ZM13.294 13.0369C13.539 13.0389 13.732 13.1169 13.931 13.4029C14.376 14.0449 14.252 15.0179 13.803 15.4079C13.356 15.7979 13.077 15.8319 12.881 15.8059C12.685 15.7789 12.486 15.6439 12.308 15.3919C11.968 14.9119 11.868 14.1359 12.315 13.5819C12.553 13.2659 12.99 13.0689 13.295 13.0369H13.294ZM22.777 13.2599C22.815 13.2659 23.241 13.5129 23.445 13.8959C23.649 14.2789 23.687 14.6349 23.493 14.9619C22.916 15.9379 21.689 15.6739 21.503 15.2489C21.433 15.0869 21.486 14.4359 21.823 13.9289C22.158 13.4199 22.58 13.2289 22.777 13.2589V13.2599ZM33.341 14.0079C33.403 14.0909 33.554 14.6479 33.437 15.0899C33.319 15.5319 33.127 15.8049 32.657 15.9009C32.055 16.0249 31.717 15.9009 31.464 15.6939C31.21 15.4889 31.039 15.1419 31.002 14.7709C30.912 13.8509 31.242 13.6379 31.766 13.4979C32.376 13.3479 33.066 13.6099 33.341 14.0079Z" fill="#FF52C1"/>
</svg>
